<svg width="63" height="56" viewBox="0 0 63 56" fill="none" xmlns="http://www.w3.org/2000/svg">
<circle cx="28" cy="28" r="28" fill="url(#paint0_radial_53_58)"/>
<circle cx="35" cy="28" r="28" fill="#131313"/>
<path d="M23.9873 12.5379L24.2917 16.3805L24.1395 15.7718C24.6468 14.6051 25.4711 13.6793 26.6125 12.9945C27.7538 12.2843 29.0727 11.9292 30.5692 11.9292C32.0656 11.9292 33.2831 12.3731 34.2215 13.2608C35.1853 14.1231 35.6799 15.2518 35.7053 16.6468V28.2887H32.129V17.9023C32.1037 17.0399 31.85 16.3425 31.3681 15.8098C30.9116 15.2518 30.1887 14.9728 29.1996 14.9728C28.2865 14.9728 27.4622 15.2265 26.7266 15.7337C25.9911 16.241 25.4077 16.9385 24.9765 17.8262C24.5707 18.7139 24.3678 19.7412 24.3678 20.9079V28.2887H20.8296V12.5379H23.9873Z" fill="white"/>
<path d="M41.4073 32.3H40.1C40.2 32.7 40.5 33 40.9 33.3C41.3 33.6 41.8 33.7 42.4 33.7C43 33.7 43.5 33.6 43.9 33.3C44.3 33 44.5 32.6 44.5 32.1C44.5 31.6 44.2 31.2 43.8 31C43.3 30.7 42.5 30.5 41.3 30.2C39.6 29.7 38.3 29.2 37.4 28.4C36.5 27.6 36 26.6 36 25.3C36 24.1 36.4 23 37.3 22.2C38.2 21.3 39.4 20.9 40.9 20.9C42.5 20.9 43.8 21.2 44.9 21.9C46 22.6 46.6 23.6 46.7 24.9H43.4C43.2 24.3 42.9 23.9 42.5 23.7C42.1 23.4 41.6 23.3 41 23.3C40.3 23.3 39.7 23.4 39.3 23.7C38.9 24 38.7 24.4 38.7 24.9C38.7 25.4 39 25.8 39.5 26.1C40 26.3 40.9 26.6 42.3 27C43.7 27.4 44.8 28 45.6 28.8C46.4 29.6 46.8 30.6 46.8 32C46.8 33.3 46.3 34.4 45.3 35.2C44.3 36 43 36.4 41.3 36.4C39.7 36.4 38.3 36 37.2 35.3C36.1 34.5 35.4 33.5 35.1 32.3H36.8Z" fill="white"/>

<defs>
<radialGradient id="paint0_radial_53_58" cx="0" cy="0" r="1" gradientUnits="userSpaceOnUse" gradientTransform="translate(28 28) rotate(90) scale(28)">
<stop stop-color="#FF5858"/>
<stop offset="1" stop-color="#FF5858" stop-opacity="0.56"/>
</radialGradient>
</defs>
</svg>
